<?xml version="1.0" encoding="UTF-8" standalone="no"?>
<svg width="192px" height="199px" viewBox="0 0 192 199" version="1.1" xmlns="http://www.w3.org/2000/svg" xmlns:xlink="http://www.w3.org/1999/xlink" xmlns:sketch="http://www.bohemiancoding.com/sketch/ns">
    <!-- Generator: Sketch 3.3.3 (12081) - http://www.bohemiancoding.com/sketch -->
    <title>Logo / Ostmark@2x</title>
    <desc>Created with Sketch.</desc>
    <defs></defs>
    <g id="Page-1" stroke="none" stroke-width="1" fill="none" fill-rule="evenodd" sketch:type="MSPage">
        <g id="Logo-/-Ostmark" sketch:type="MSLayerGroup" transform="translate(-1.000000, 0.000000)">
            <path d="M99.22576,124.271886 L94.7704,124.271886 C81.85024,124.271886 75.46288,117.861966 75.46288,104.893237 L75.46288,94.1414552 C75.46288,81.1727264 81.85024,74.7623245 94.7704,74.7623245 L99.22576,74.7623245 C112.15024,74.7623245 118.53616,81.1727264 118.53616,94.1414552 L118.53616,104.893237 C118.53616,117.861966 112.15024,124.271886 99.22576,124.271886" id="Center" fill="#FFFFFF" sketch:type="MSShapeGroup"></path>
            <path d="M110.85232,54.3742203 L83.14816,54.3742203 L90.11632,5.86977724 L90.14224,5.86977724 C90.68656,2.54797094 93.54208,0.0154188862 96.99808,0.0154188862 C100.4584,0.0154188862 103.3096,2.54797094 103.85824,5.86977724 L103.88416,5.86977724 L110.85232,54.3742203" id="Arrow-Up" fill="#293235" sketch:type="MSShapeGroup"></path>
            <path d="M96.99808,199.020237 C93.53776,199.020237 90.68656,196.483349 90.14224,193.165879 L90.112,193.165879 L83.14816,144.661436 L110.85232,144.661436 L103.88416,193.165879 L103.85824,193.165879 C103.31392,196.483349 100.4584,199.020237 96.99808,199.020237" id="Arrow-Down" fill="#293235" sketch:type="MSShapeGroup"></path>
            <path d="M138.84832,113.421327 L187.1656,106.429344 L187.1656,106.401397 C190.4728,105.851617 193,102.990932 193,99.5168644 C193,96.0452058 190.4728,93.1806659 187.1656,92.6328136 L187.1656,92.6082397 L138.84832,85.6128838 L138.84832,113.421327" id="Arrow-Right" fill="#FFFFFF" sketch:type="MSShapeGroup"></path>
            <path d="M55.15024,113.420845 L6.83536,106.425971 L6.83536,106.399952 C3.52624,105.853545 0.99904,102.987077 0.99904,99.5178281 C0.99904,96.0442421 3.52624,93.1821114 6.83536,92.631368 L6.83536,92.6053487 L55.15024,85.6148111 L55.15024,113.420845" id="Arrow-Left" fill="#293235" sketch:type="MSShapeGroup"></path>
        </g>
    </g>
</svg>